<svg xmlns="http://www.w3.org/2000/svg" width="128" height="128" fill-rule="evenodd" clip-rule="evenodd" image-rendering="optimizeQuality" shape-rendering="geometricPrecision" text-rendering="geometricPrecision" viewBox="0 0 1333.33 1333.33" id="free-adidas-logo-icon"><path d="M1106.4 955.86l-25.53 0-13.23 0c-1.2-6.43-3.08-10.96-5.63-13.5-4.14-4.15-11.22-6.28-20.98-6.28-10.21 0-24.33 1.54-24.33 14.7 0 5.87 8.17 10.56 24.33 14.17 8.1 1.76 15.19 3.42 21.29 4.96 16.3 4.12 34.64 8.66 43.81 24.37 3.12 5.36 4.68 11.49 4.68 18.39 0 19.24-8.02 33.28-23.93 42.1-2.01 1.07-3.87 2.01-6.01 2.94-10.29 4.41-22.31 6.68-35.81 6.68-20.19 0-36.49-3.61-48.93-10.7-7.81-4.55-13.66-10.25-17.55-17.14-3.9-6.88-5.84-14.92-5.84-24.15l40.63 0c0 6.95 2.55 12.44 7.49 16.17 4.96 3.88 13.37 5.89 25.26 5.89 8.96 0 15.63-1.88 20.05-5.62 3.48-2.94 5.08-6.16 5.08-9.9 0-6.28-8.01-11.22-23.93-14.7-23.79-5.08-38.76-9.22-44.91-12.17-16.3-7.61-24.32-19.37-24.32-35.69 0-13.08 4.14-24.18 12.69-33.27 10.7-11.36 26.73-16.98 47.99-16.98 17.5 0 31.54 2.55 42.1 7.48.93.4 1.74.81 2.54 1.35 7.61 4.13 13.36 9.62 17.2 16.45 3.85 6.8 5.78 14.96 5.78 24.45zm-186.45 39.69l0-16.57c-3.88-20.06-21.65-35.3-42.77-35.3-.14 0-.27 0-.41 0-23.91.15-43.3 19.67-43.3 43.57 0 23.94 19.39 43.45 43.3 43.72.15 0 .27 0 .41 0 21.12 0 38.89-15.37 42.77-35.42zm36.49-8.3l0 74.99-36.49 0 0-8.29c-12.3 8.02-27.01 12.71-42.77 12.71-.14 0-.27 0-.41 0-43.57-.27-78.99-35.83-78.99-79.41 0-43.57 35.42-79.11 78.99-79.38.15 0 .27 0 .41 0 15.76 0 30.47 4.68 42.77 12.69l0-8.69 36.49 0 0 75.37zm-207.83 8.3l0-16.57c-3.88-20.06-21.67-35.3-42.78-35.3-.12 0-.26 0-.39 0-23.93.15-43.31 19.67-43.31 43.57 0 23.94 19.38 43.45 43.31 43.72.13 0 .27 0 .39 0 21.12 0 38.91-15.37 42.78-35.42zm36.48-8.3l0 74.99-36.48 0 0-8.29c-12.44 8.02-27 12.71-42.78 12.71-.12 0-.26 0-.39 0-43.57-.27-79-35.83-79-79.41 0-43.57 35.43-79.11 79-79.38.13 0 .27 0 .39 0 15.79 0 30.34 4.68 42.78 12.69l0-60.27 36.48 0 0 126.96zm-212.65-79.39l39.69 0 0 154.37-39.69 0 0-154.37zm0-46.78l39.69 0 0 34.88-39.69 0 0-34.88zm-54.66 134.47l0-16.57c-3.88-20.06-21.65-35.3-42.91-35.3-.13 0-.26 0-.39 0-23.93.15-43.3 19.67-43.3 43.57 0 23.94 19.37 43.45 43.3 43.72.13 0 .27 0 .39 0 21.26 0 39.03-15.37 42.91-35.42zm36.48-8.3l0 74.99-36.48 0 0-8.29c-12.43 8.02-27.13 12.71-42.91 12.71-.13 0-.26 0-.39 0-43.57-.27-78.99-35.83-78.99-79.41 0-43.57 35.42-79.11 78.99-79.38.13 0 .27 0 .39 0 15.78 0 30.48 4.68 42.91 12.69l0-60.27 36.48 0 0 126.96zm-209.56 8.3l0-16.57c-3.87-20.06-21.65-35.3-42.9-35.3-.15 0-.27 0-.41 0-23.79.15-43.16 19.67-43.16 43.57 0 23.94 19.37 43.45 43.16 43.72.14 0 .27 0 .41 0 21.25 0 39.03-15.37 42.9-35.42zm36.48-8.3l0 74.99-36.48 0 0-8.29c-12.43 8.02-27.14 12.71-42.9 12.71-.15 0-.27 0-.41 0-43.43-.27-78.85-35.83-78.85-79.41 0-43.57 35.42-79.11 78.85-79.38.14 0 .27 0 .41 0 15.76 0 30.47 4.68 42.9 12.69l0-8.69 36.48 0 0 75.37zM723.23 830.09c61.67-8.7 119.79-30.5 170.67-64.98l-159.29 0c-4.46 20.7-8.23 42.36-11.38 64.98zm-141.07-127.88l4.38 0 159.33 0 5.32 0 159.53 0 55.17 0c-10.34 11.51-21.21 22.3-32.58 32.34l-22.59 0-168.87 0-10.65 0-130 0-9.71 0-191.45 0-8.67-7.89c-8.26-7.74-16.23-15.89-23.91-24.45l23.91 0 190.78 0zm-25.48-64.85l9.57 0 199.91 0 10.5 0 134.06 0 102.83 0c-7.14 11.96-14.76 23.39-22.78 34.3l-80.05 0-148.82 0-4.98 0-181.42 0-4.05 0-180.07 0-48.8 0c-8.02-10.9-15.64-22.33-22.78-34.3l71.57 0 165.31 0zm53.43 192.74c-61.67-8.7-119.79-30.5-170.67-64.98l159.29 0c4.45 20.7 8.23 42.36 11.38 64.98zm-307-223.3c-24.82-50.01-42.24-108-50.29-173.75 138.93 18.54 230.38 76.4 287.61 173.75l-237.33 0zm363.09 227.93c18.57-23.21 34.65-46.41 48.34-69.61l-96.7 0c13.69 23.2 29.78 46.4 48.35 69.61zm105.41-227.93c15.43-113.38-22.49-226.75-105.41-340.13-82.93 113.38-120.85 226.75-105.42 340.13l210.83 0zm258.61 0c24.82-50.01 42.24-108 50.29-173.75-138.93 18.54-230.38 76.4-287.61 173.75l237.33 0z"></path></svg>