<svg xmlns="http://www.w3.org/2000/svg" width="24" height="24" fill="none" viewBox="0 0 24 24" id="arrow-rounded-right"><circle cx="12" cy="12" r="11" fill="url(#paint0_linear_2240_2543)" opacity=".2"></circle><path fill="url(#paint1_linear_2240_2543)" fill-rule="evenodd" d="M3 12C3 7.02944 7.02944 3 12 3C16.9706 3 21 7.02944 21 12C21 16.9706 16.9706 21 12 21C7.02944 21 3 16.9706 3 12ZM12 1C5.92487 1 1 5.92487 1 12C1 18.0751 5.92487 23 12 23C18.0751 23 23 18.0751 23 12C23 5.92487 18.0751 1 12 1ZM12.2929 17.7071C12.6834 18.0976 13.3166 18.0976 13.7071 17.7071L18.7071 12.7071C19.0976 12.3166 19.0976 11.6834 18.7071 11.2929L13.7071 6.2929C13.3166 5.90237 12.6834 5.90237 12.2929 6.29289C11.9024 6.68341 11.9024 7.31658 12.2929 7.7071L15.5857 11H6C5.44771 11 5 11.4477 5 12C5 12.5523 5.44771 13 6 13H15.5857L12.2929 16.2929C11.9024 16.6834 11.9024 17.3166 12.2929 17.7071Z" clip-rule="evenodd"></path><defs><linearGradient id="paint0_linear_2240_2543" x1="1" x2="23" y1="1" y2="23" gradientUnits="userSpaceOnUse"><stop stop-color="#4EA2EA"></stop><stop offset=".245" stop-color="#484DFF"></stop><stop offset=".484" stop-color="#CD0EF3"></stop><stop offset=".724" stop-color="#F640BB"></stop><stop offset=".95" stop-color="#FB6D64"></stop></linearGradient><linearGradient id="paint1_linear_2240_2543" x1="1" x2="23" y1="1" y2="23" gradientUnits="userSpaceOnUse"><stop stop-color="#4EA2EA"></stop><stop offset=".245" stop-color="#484DFF"></stop><stop offset=".484" stop-color="#CD0EF3"></stop><stop offset=".724" stop-color="#F640BB"></stop><stop offset=".95" stop-color="#FB6D64"></stop></linearGradient></defs></svg>